<svg width="854" height="382" viewBox="0 0 854 382" fill="none" xmlns="http://www.w3.org/2000/svg">
<g clip-path="url(#clip0)" filter="url(#filter0_d)">
<rect width="825.68" height="353.57" transform="translate(14 10)" fill="#10527A"/>
<path d="M740.619 281.551C760.395 274.959 770.445 259.782 770.771 236.019V208.675C770.771 188.086 778.624 175.024 794.33 169.49C778.624 163.956 770.771 150.976 770.771 130.55V104.549C770.771 78.8327 760.842 62.8822 740.986 56.6973L744.159 47.0537C758.075 51.2041 768.411 57.9587 775.165 67.3174C782.001 76.5947 785.419 88.8018 785.419 103.938V131.16C785.419 152.4 794.819 163.021 813.617 163.021V175.716C794.819 175.716 785.419 186.417 785.419 207.82V234.798C785.419 250.016 781.96 262.223 775.043 271.419C768.126 280.615 757.831 287.247 744.159 291.316L740.619 281.551Z" fill="#C6ECEA"/>
<path d="M116.662 171.943C119.543 167.206 123.23 163.544 127.722 160.956C132.214 158.368 137.121 157.074 142.444 157.074C150.94 157.074 157.263 159.467 161.413 164.252C165.564 169.037 167.663 176.215 167.712 185.785V237.787H158.996V185.712C158.947 178.632 157.434 173.359 154.455 169.892C151.526 166.425 146.814 164.692 140.32 164.692C134.9 164.692 130.09 166.401 125.891 169.818C121.74 173.188 118.664 177.753 116.662 183.515V237.787H107.946V125.287H116.662V171.943ZM219.568 231.855C225.671 231.855 230.774 230.146 234.875 226.728C239.026 223.261 241.272 218.793 241.613 213.324H250.036C249.792 218.158 248.279 222.577 245.495 226.581C242.712 230.536 239.001 233.637 234.362 235.883C229.773 238.129 224.841 239.252 219.568 239.252C209.167 239.252 200.915 235.639 194.812 228.412C188.757 221.186 185.73 211.469 185.73 199.262V196.625C185.73 188.813 187.097 181.903 189.831 175.898C192.566 169.892 196.472 165.253 201.55 161.982C206.677 158.71 212.658 157.074 219.494 157.074C228.186 157.074 235.339 159.662 240.954 164.838C246.618 170.014 249.646 176.825 250.036 185.273H241.613C241.223 179.071 238.977 174.067 234.875 170.258C230.822 166.449 225.695 164.545 219.494 164.545C211.584 164.545 205.432 167.401 201.037 173.114C196.692 178.827 194.519 186.835 194.519 197.138V199.701C194.519 209.809 196.692 217.694 201.037 223.359C205.432 229.023 211.609 231.855 219.568 231.855ZM275.598 158.539L275.891 171.43C278.82 166.645 282.483 163.056 286.877 160.663C291.272 158.271 296.154 157.074 301.526 157.074C314.026 157.074 321.96 162.201 325.329 172.455C328.161 167.524 331.945 163.739 336.682 161.103C341.418 158.417 346.643 157.074 352.356 157.074C369.348 157.074 378.015 166.352 378.357 184.906V237.787H369.568V185.566C369.519 178.485 367.981 173.236 364.953 169.818C361.975 166.401 357.092 164.692 350.305 164.692C344.006 164.789 338.684 166.84 334.338 170.844C329.992 174.799 327.575 179.633 327.087 185.346V237.787H318.298V184.906C318.249 178.119 316.638 173.066 313.464 169.745C310.339 166.376 305.505 164.692 298.962 164.692C293.445 164.692 288.708 166.278 284.753 169.452C280.798 172.577 277.868 177.24 275.964 183.442V237.787H267.175V158.539H275.598ZM419.592 219.55L420.91 226.361L422.668 219.184L441.711 158.539H449.182L468.005 218.671L470.056 227.021L471.74 219.33L488 158.539H497.082L474.011 237.787H466.54L446.179 174.945L445.227 170.624L444.275 175.019L424.279 237.787H416.809L393.811 158.539H402.82L419.592 219.55ZM544.397 239.252C537.658 239.252 531.555 237.592 526.086 234.272C520.666 230.951 516.443 226.337 513.415 220.429C510.388 214.472 508.874 207.807 508.874 200.434V197.284C508.874 189.667 510.339 182.807 513.269 176.703C516.247 170.6 520.373 165.815 525.647 162.348C530.92 158.832 536.633 157.074 542.785 157.074C552.404 157.074 560.022 160.37 565.637 166.962C571.301 173.505 574.133 182.465 574.133 193.842V198.749H517.59V200.434C517.59 209.418 520.154 216.913 525.28 222.919C530.456 228.876 536.95 231.855 544.763 231.855C549.45 231.855 553.576 231 557.141 229.291C560.754 227.582 564.026 224.848 566.955 221.088L572.448 225.263C566.003 234.589 556.653 239.252 544.397 239.252ZM542.785 164.545C536.194 164.545 530.627 166.962 526.086 171.796C521.594 176.63 518.86 183.124 517.883 191.278H565.417V190.326C565.173 182.709 563 176.508 558.899 171.723C554.797 166.938 549.426 164.545 542.785 164.545ZM654.992 198.969C654.992 211.322 652.258 221.137 646.789 228.412C641.32 235.639 633.972 239.252 624.743 239.252C613.708 239.252 605.359 235.151 599.695 226.947L599.328 237.787H591.125V125.287H599.841V170.038C605.407 161.396 613.659 157.074 624.597 157.074C633.972 157.074 641.369 160.663 646.789 167.841C652.258 174.97 654.992 184.906 654.992 197.651V198.969ZM646.203 197.431C646.203 186.982 644.177 178.925 640.124 173.261C636.071 167.548 630.359 164.692 622.986 164.692C617.37 164.692 612.61 166.083 608.703 168.866C604.797 171.601 601.843 175.629 599.841 180.951V216.693C604.236 226.654 611.999 231.635 623.132 231.635C630.359 231.635 635.998 228.778 640.051 223.066C644.153 217.353 646.203 208.808 646.203 197.431ZM721.862 217.646C721.862 213.3 720.105 209.809 716.589 207.172C713.122 204.535 707.873 202.484 700.842 201.02C693.811 199.506 688.342 197.797 684.436 195.893C680.578 193.94 677.697 191.571 675.793 188.788C673.938 186.005 673.01 182.636 673.01 178.681C673.01 172.431 675.622 167.279 680.847 163.227C686.071 159.125 692.761 157.074 700.915 157.074C709.753 157.074 716.833 159.272 722.155 163.666C727.527 168.012 730.212 173.7 730.212 180.732H721.423C721.423 176.093 719.47 172.235 715.564 169.159C711.706 166.083 706.823 164.545 700.915 164.545C695.154 164.545 690.515 165.839 686.999 168.427C683.532 170.966 681.799 174.286 681.799 178.388C681.799 182.343 683.239 185.419 686.12 187.616C689.05 189.765 694.348 191.742 702.014 193.549C709.729 195.356 715.49 197.284 719.299 199.335C723.156 201.386 726.013 203.852 727.868 206.733C729.724 209.613 730.652 213.105 730.652 217.206C730.652 223.896 727.942 229.242 722.522 233.246C717.151 237.25 710.119 239.252 701.428 239.252C692.199 239.252 684.704 237.03 678.943 232.587C673.23 228.095 670.373 222.431 670.373 215.595H679.162C679.504 220.722 681.653 224.726 685.608 227.607C689.612 230.439 694.885 231.855 701.428 231.855C707.531 231.855 712.463 230.512 716.223 227.826C719.983 225.141 721.862 221.747 721.862 217.646Z" fill="#C6ECEA"/>
<path d="M91.7599 291.316C78.0881 287.247 67.7935 280.615 60.8762 271.419C53.9588 262.223 50.5002 250.016 50.5002 234.798V207.82C50.5002 186.417 41.1008 175.716 22.3019 175.716V163.021C41.1008 163.021 50.5002 152.4 50.5002 131.16V103.206C50.5816 88.3135 54.0402 76.2692 60.8762 67.0732C67.7121 57.8773 78.0067 51.2041 91.7599 47.0537L94.9338 56.6973C75.077 63.0449 65.1486 78.9548 65.1486 104.427V130.428C65.1486 150.447 57.6616 163.427 42.6877 169.368C57.6616 175.634 65.1486 188.574 65.1486 208.187V236.019C65.4741 259.782 75.5246 274.959 95.3 281.551L91.7599 291.316Z" fill="#C6ECEA"/>
</g>
<defs>
<filter id="filter0_d" x="0" y="0" width="853.68" height="381.57" filterUnits="userSpaceOnUse" color-interpolation-filters="sRGB">
<feFlood flood-opacity="0" result="BackgroundImageFix"/>
<feColorMatrix in="SourceAlpha" type="matrix" values="0 0 0 0 0 0 0 0 0 0 0 0 0 0 0 0 0 0 127 0"/>
<feMorphology radius="4" operator="dilate" in="SourceAlpha" result="effect1_dropShadow"/>
<feOffset dy="4"/>
<feGaussianBlur stdDeviation="5"/>
<feColorMatrix type="matrix" values="0 0 0 0 0 0 0 0 0 0 0 0 0 0 0 0 0 0 0.25 0"/>
<feBlend mode="normal" in2="BackgroundImageFix" result="effect1_dropShadow"/>
<feBlend mode="normal" in="SourceGraphic" in2="effect1_dropShadow" result="shape"/>
</filter>
<clipPath id="clip0">
<rect width="825.68" height="353.57" fill="white" transform="translate(14 10)"/>
</clipPath>
</defs>
</svg>
